# xmcd
#
# Track frame offsets: 
#        150
#        16820
#        33925
#        47610
#        65735
#        82392
#        94682
#        110692
#        126835
#        141565
#        156377
#        172452
#
# Disc length: 2561 seconds
#
# Revision: 4
# Processed by: cddbd v1.5PL3 Copyright (c) Steve Scherf et al.
# Submitted via: ExactAudioCopy v0.95a3
#
DISCID=b309ff0c
DTITLE=Tracy Byrd - Ten Rounds
DYEAR=2001
DGENRE=Country
TTITLE0=Somebody's Dream
TTITLE1=Just Let Me Be In Love
TTITLE2=Ten Rounds With Jose Cuervo
TTITLE3=Wildfire
TTITLE4=How Much Does The World Weigh
TTITLE5=Summertime Fever
TTITLE6=Crazy Every Time
TTITLE7=A Good Way To Get On My Bad Side
TTITLE8=Needed
TTITLE9=Tryin' Not To Love You
TTITLE10=Never Gonna Break Again
TTITLE11=Keeper Of The Stars
EXTD=YEAR: 2001 ID3G: 2
EXTT0=
EXTT1=
EXTT2=
EXTT3=
EXTT4=
EXTT5=
EXTT6=
EXTT7=
EXTT8=
EXTT9=
EXTT10=
EXTT11=
PLAYORDER=
